<mxfile host="app.diagrams.net" modified="2024-04-02T16:50:44.562Z" agent="Mozilla/5.0 (Windows NT 10.0; Win64; x64) AppleWebKit/537.36 (KHTML, like Gecko) Chrome/123.0.0.0 Safari/537.36" etag="fu3PyixbDjpvXdkIAxsL" version="24.2.1" type="google">
  <diagram name="Page-1" id="13e1069c-82ec-6db2-03f1-153e76fe0fe0">
    <mxGraphModel grid="1" page="1" gridSize="10" guides="1" tooltips="1" connect="1" arrows="1" fold="1" pageScale="1" pageWidth="1100" pageHeight="850" background="none" math="0" shadow="0">
      <root>
        <mxCell id="0" />
        <mxCell id="1" parent="0" />
        <mxCell id="r54PweugZHh9L-M7T_97-32" value="" style="group" vertex="1" connectable="0" parent="1">
          <mxGeometry x="270" y="80" width="610" height="610" as="geometry" />
        </mxCell>
        <mxCell id="7baba1c4bc27f4b0-2" value=":&lt;u&gt;Interface&lt;/u&gt;" style="shape=umlLifeline;perimeter=lifelinePerimeter;whiteSpace=wrap;html=1;container=1;collapsible=0;recursiveResize=0;outlineConnect=0;rounded=1;shadow=0;comic=0;labelBackgroundColor=none;strokeWidth=1;fontFamily=Verdana;fontSize=12;align=center;" vertex="1" parent="r54PweugZHh9L-M7T_97-32">
          <mxGeometry x="240" width="100" height="560" as="geometry" />
        </mxCell>
        <mxCell id="7baba1c4bc27f4b0-10" value="" style="html=1;points=[];perimeter=orthogonalPerimeter;rounded=0;shadow=0;comic=0;labelBackgroundColor=none;strokeWidth=1;fontFamily=Verdana;fontSize=12;align=center;" vertex="1" parent="7baba1c4bc27f4b0-2">
          <mxGeometry x="45" y="100" width="10" height="60" as="geometry" />
        </mxCell>
        <mxCell id="r54PweugZHh9L-M7T_97-15" value="" style="html=1;points=[[0,0,0,0,5],[0,1,0,0,-5],[1,0,0,0,5],[1,1,0,0,-5]];perimeter=orthogonalPerimeter;outlineConnect=0;targetShapes=umlLifeline;portConstraint=eastwest;newEdgeStyle={&quot;curved&quot;:0,&quot;rounded&quot;:0};" vertex="1" parent="7baba1c4bc27f4b0-2">
          <mxGeometry x="45" y="190" width="10" height="190" as="geometry" />
        </mxCell>
        <mxCell id="r54PweugZHh9L-M7T_97-26" value="stopSession()" style="html=1;verticalAlign=bottom;endArrow=block;curved=0;rounded=0;" edge="1" parent="7baba1c4bc27f4b0-2" target="7baba1c4bc27f4b0-3">
          <mxGeometry width="80" relative="1" as="geometry">
            <mxPoint x="50" y="480" as="sourcePoint" />
            <mxPoint x="130" y="480" as="targetPoint" />
          </mxGeometry>
        </mxCell>
        <mxCell id="r54PweugZHh9L-M7T_97-29" value="" style="html=1;points=[[0,0,0,0,5],[0,1,0,0,-5],[1,0,0,0,5],[1,1,0,0,-5]];perimeter=orthogonalPerimeter;outlineConnect=0;targetShapes=umlLifeline;portConstraint=eastwest;newEdgeStyle={&quot;curved&quot;:0,&quot;rounded&quot;:0};" vertex="1" parent="7baba1c4bc27f4b0-2">
          <mxGeometry x="45" y="480" width="10" height="30" as="geometry" />
        </mxCell>
        <mxCell id="7baba1c4bc27f4b0-3" value=":&lt;u&gt;Bot&lt;/u&gt;" style="shape=umlLifeline;perimeter=lifelinePerimeter;whiteSpace=wrap;html=1;container=1;collapsible=0;recursiveResize=0;outlineConnect=0;rounded=1;shadow=0;comic=0;labelBackgroundColor=none;strokeWidth=1;fontFamily=Verdana;fontSize=12;align=center;" vertex="1" parent="r54PweugZHh9L-M7T_97-32">
          <mxGeometry x="490" width="100" height="560" as="geometry" />
        </mxCell>
        <mxCell id="7baba1c4bc27f4b0-13" value="" style="html=1;points=[];perimeter=orthogonalPerimeter;rounded=0;shadow=0;comic=0;labelBackgroundColor=none;strokeWidth=1;fontFamily=Verdana;fontSize=12;align=center;" vertex="1" parent="7baba1c4bc27f4b0-3">
          <mxGeometry x="45" y="110" width="10" height="260" as="geometry" />
        </mxCell>
        <mxCell id="r54PweugZHh9L-M7T_97-5" value="&lt;font style=&quot;font-size: 12px;&quot;&gt;startSession()&lt;/font&gt;" style="html=1;verticalAlign=bottom;endArrow=open;dashed=1;endSize=8;curved=0;rounded=0;" edge="1" parent="7baba1c4bc27f4b0-3">
          <mxGeometry relative="1" as="geometry">
            <mxPoint x="45" y="140" as="sourcePoint" />
            <mxPoint x="-194" y="140" as="targetPoint" />
          </mxGeometry>
        </mxCell>
        <mxCell id="r54PweugZHh9L-M7T_97-28" value="" style="html=1;points=[[0,0,0,0,5],[0,1,0,0,-5],[1,0,0,0,5],[1,1,0,0,-5]];perimeter=orthogonalPerimeter;outlineConnect=0;targetShapes=umlLifeline;portConstraint=eastwest;newEdgeStyle={&quot;curved&quot;:0,&quot;rounded&quot;:0};" vertex="1" parent="7baba1c4bc27f4b0-3">
          <mxGeometry x="45" y="480" width="10" height="30" as="geometry" />
        </mxCell>
        <mxCell id="r54PweugZHh9L-M7T_97-31" value="" style="shape=umlDestroy;whiteSpace=wrap;html=1;strokeWidth=3;targetShapes=umlLifeline;" vertex="1" parent="7baba1c4bc27f4b0-3">
          <mxGeometry x="35" y="550" width="30" height="30" as="geometry" />
        </mxCell>
        <mxCell id="7baba1c4bc27f4b0-11" value="getNews()" style="html=1;verticalAlign=bottom;endArrow=block;entryX=0;entryY=0;labelBackgroundColor=none;fontFamily=Verdana;fontSize=12;edgeStyle=elbowEdgeStyle;elbow=vertical;" edge="1" parent="r54PweugZHh9L-M7T_97-32">
          <mxGeometry relative="1" as="geometry">
            <mxPoint x="69.5" y="270" as="sourcePoint" />
            <mxPoint x="285" y="270" as="targetPoint" />
          </mxGeometry>
        </mxCell>
        <mxCell id="7baba1c4bc27f4b0-14" value="createSession()" style="html=1;verticalAlign=bottom;endArrow=block;entryX=0;entryY=0;labelBackgroundColor=none;fontFamily=Verdana;fontSize=12;edgeStyle=elbowEdgeStyle;elbow=vertical;" edge="1" parent="r54PweugZHh9L-M7T_97-32" source="7baba1c4bc27f4b0-10" target="7baba1c4bc27f4b0-13">
          <mxGeometry relative="1" as="geometry">
            <mxPoint x="370" y="120" as="sourcePoint" />
          </mxGeometry>
        </mxCell>
        <mxCell id="r54PweugZHh9L-M7T_97-1" value="" style="shape=umlLifeline;perimeter=lifelinePerimeter;whiteSpace=wrap;html=1;container=1;dropTarget=0;collapsible=0;recursiveResize=0;outlineConnect=0;portConstraint=eastwest;newEdgeStyle={&quot;curved&quot;:0,&quot;rounded&quot;:0};participant=umlActor;size=40;" vertex="1" parent="r54PweugZHh9L-M7T_97-32">
          <mxGeometry x="60" y="10" width="20" height="600" as="geometry" />
        </mxCell>
        <mxCell id="r54PweugZHh9L-M7T_97-4" value="stop" style="html=1;verticalAlign=bottom;endArrow=block;curved=0;rounded=0;" edge="1" parent="r54PweugZHh9L-M7T_97-32" target="7baba1c4bc27f4b0-2">
          <mxGeometry width="80" relative="1" as="geometry">
            <mxPoint x="70" y="480" as="sourcePoint" />
            <mxPoint x="150" y="480" as="targetPoint" />
          </mxGeometry>
        </mxCell>
        <mxCell id="r54PweugZHh9L-M7T_97-7" value="message(enter keywords)" style="html=1;verticalAlign=bottom;endArrow=open;dashed=1;endSize=8;curved=0;rounded=0;" edge="1" parent="r54PweugZHh9L-M7T_97-32" target="r54PweugZHh9L-M7T_97-1">
          <mxGeometry relative="1" as="geometry">
            <mxPoint x="284" y="150" as="sourcePoint" />
            <mxPoint x="204" y="150" as="targetPoint" />
          </mxGeometry>
        </mxCell>
        <mxCell id="r54PweugZHh9L-M7T_97-6" value="" style="html=1;verticalAlign=bottom;endArrow=block;curved=0;rounded=0;" edge="1" parent="r54PweugZHh9L-M7T_97-32">
          <mxGeometry width="80" relative="1" as="geometry">
            <mxPoint x="70" y="210" as="sourcePoint" />
            <mxPoint x="285" y="210" as="targetPoint" />
          </mxGeometry>
        </mxCell>
        <mxCell id="r54PweugZHh9L-M7T_97-8" value="Message(Change Key Words&lt;div&gt;and channels)&lt;/div&gt;" style="text;html=1;align=center;verticalAlign=middle;resizable=0;points=[];autosize=1;strokeColor=none;fillColor=none;" vertex="1" parent="r54PweugZHh9L-M7T_97-32">
          <mxGeometry x="95" y="175" width="180" height="40" as="geometry" />
        </mxCell>
        <mxCell id="r54PweugZHh9L-M7T_97-9" value="setKeyWordsAndChannels()" style="html=1;verticalAlign=bottom;endArrow=block;curved=0;rounded=0;" edge="1" parent="r54PweugZHh9L-M7T_97-32">
          <mxGeometry width="80" relative="1" as="geometry">
            <mxPoint x="295" y="215" as="sourcePoint" />
            <mxPoint x="540" y="215" as="targetPoint" />
          </mxGeometry>
        </mxCell>
        <mxCell id="r54PweugZHh9L-M7T_97-17" value="showNews()" style="html=1;verticalAlign=bottom;endArrow=open;dashed=1;endSize=8;curved=0;rounded=0;" edge="1" parent="r54PweugZHh9L-M7T_97-32" source="7baba1c4bc27f4b0-13">
          <mxGeometry relative="1" as="geometry">
            <mxPoint x="530" y="344" as="sourcePoint" />
            <mxPoint x="295" y="344" as="targetPoint" />
          </mxGeometry>
        </mxCell>
        <mxCell id="r54PweugZHh9L-M7T_97-20" value="Loop" style="shape=umlFrame;whiteSpace=wrap;html=1;pointerEvents=0;" vertex="1" parent="r54PweugZHh9L-M7T_97-32">
          <mxGeometry y="170" width="610" height="270" as="geometry" />
        </mxCell>
        <mxCell id="r54PweugZHh9L-M7T_97-21" value="" style="html=1;points=[[0,0,0,0,5],[0,1,0,0,-5],[1,0,0,0,5],[1,1,0,0,-5]];perimeter=orthogonalPerimeter;outlineConnect=0;targetShapes=umlLifeline;portConstraint=eastwest;newEdgeStyle={&quot;curved&quot;:0,&quot;rounded&quot;:0};" vertex="1" parent="r54PweugZHh9L-M7T_97-32">
          <mxGeometry x="540" y="300" width="10" height="40" as="geometry" />
        </mxCell>
        <mxCell id="r54PweugZHh9L-M7T_97-22" value="fetchNews()" style="html=1;align=left;spacingLeft=2;endArrow=block;rounded=0;edgeStyle=orthogonalEdgeStyle;curved=0;rounded=0;" edge="1" parent="r54PweugZHh9L-M7T_97-32" target="r54PweugZHh9L-M7T_97-21">
          <mxGeometry x="0.2174" relative="1" as="geometry">
            <mxPoint x="545" y="220" as="sourcePoint" />
            <Array as="points">
              <mxPoint x="545" y="290" />
              <mxPoint x="575" y="290" />
              <mxPoint x="575" y="320" />
            </Array>
            <mxPoint as="offset" />
          </mxGeometry>
        </mxCell>
        <mxCell id="r54PweugZHh9L-M7T_97-24" value="message(printNews)" style="html=1;verticalAlign=bottom;endArrow=open;dashed=1;endSize=8;curved=0;rounded=0;" edge="1" parent="r54PweugZHh9L-M7T_97-32">
          <mxGeometry relative="1" as="geometry">
            <mxPoint x="285" y="359.5" as="sourcePoint" />
            <mxPoint x="69.5" y="359.5" as="targetPoint" />
          </mxGeometry>
        </mxCell>
        <mxCell id="r54PweugZHh9L-M7T_97-30" value="" style="shape=umlDestroy;whiteSpace=wrap;html=1;strokeWidth=3;targetShapes=umlLifeline;" vertex="1" parent="r54PweugZHh9L-M7T_97-32">
          <mxGeometry x="275" y="550" width="30" height="30" as="geometry" />
        </mxCell>
        <mxCell id="ZFouJEgVQxiFM9xxYxSX-3" value="getNews()" style="html=1;verticalAlign=bottom;endArrow=block;entryX=0;entryY=0;labelBackgroundColor=none;fontFamily=Verdana;fontSize=12;edgeStyle=elbowEdgeStyle;elbow=vertical;" edge="1" parent="r54PweugZHh9L-M7T_97-32" source="r54PweugZHh9L-M7T_97-15">
          <mxGeometry relative="1" as="geometry">
            <mxPoint x="320" y="279.5" as="sourcePoint" />
            <mxPoint x="535" y="279.5" as="targetPoint" />
          </mxGeometry>
        </mxCell>
        <mxCell id="ZFouJEgVQxiFM9xxYxSX-1" value="start" style="html=1;verticalAlign=bottom;endArrow=block;entryX=0;entryY=0;labelBackgroundColor=none;fontFamily=Verdana;fontSize=12;edgeStyle=elbowEdgeStyle;elbow=vertical;" edge="1" parent="1">
          <mxGeometry relative="1" as="geometry">
            <mxPoint x="350" y="190" as="sourcePoint" />
            <mxPoint x="565" y="190" as="targetPoint" />
          </mxGeometry>
        </mxCell>
      </root>
    </mxGraphModel>
  </diagram>
</mxfile>
